#!OML:ASF I:\Actors\actors\Patient Classification 1\Patient 1\Session 1\Subject1.ASF
:FULLY-SPECIFIED
:DEGREES
844
root 0.822787 17.5641 8.16938 12.6065 -3.68353 -8.62134
lowerback 3.72675 1.94974 4.22141
upperback -7.25435 3.15592 1.89059
thorax -9.67235 1.31117 -0.723829
lowerneck -12.9505 -4.09393 -3.47928
upperneck 24.9836 -7.22839 8.3366
head 10.5904 -2.70076 2.62161
rclavicle -6.74625e-015 -7.95139e-015
rhumerus -8.56217 31.6804 -94.4175
rradius 74.0331
rwrist 42.3593
rhand -10.7975 -61.1481
rfingers 7.12502
rthumb 15.2156 -629.431
lclavicle -6.74625e-015 -7.95139e-015
lhumerus -16.8909 -19.2773 72.3431
lradius 83.8715
lwrist -31.5267
lhand -42.0688 -27.0636
lfingers 7.12502
lthumb -14.9614 2.37597
rfemur -10.5516 22.5668 20.225
rtibia 5.71232
rfoot -12.5716 -25.6802
rtoes 4.27003
lfemur -4.92143 -26.7033 -9.8675
ltibia 0.134386
lfoot -12.8756 39.2198
ltoes 4.13504
845
root 0.825333 17.5605 8.16639 12.4768 -3.26304 -8.56463
lowerback 3.78955 1.83707 4.36424
upperback -7.21764 3.02415 1.95513
thorax -9.67231 1.23937 -0.721233
lowerneck -12.9125 -4.07752 -3.45496
upperneck 25.0362 -7.13939 8.06126
head 10.5826 -2.68861 2.53173
rclavicle -1.58593e-014 -2.44505e-014
rhumerus -9.07347 30.2873 -95.0514
rradius 74.3975
rwrist 43.6317
rhand -10.745 -60.0231
rfingers 7.12502
rthumb 15.2661 -449.44
lclavicle -1.58593e-014 -2.44505e-014
lhumerus -16.9259 -21.1219 74.9711
lradius 84.4436
lwrist -32.1062
lhand -41.9728 -25.7911
lfingers 7.12502
lthumb -14.8689 3.65538
rfemur -10.3451 22.5486 20.2706
rtibia 5.72256
rfoot -12.7868 -26.0547
rtoes 4.7469
lfemur -4.93044 -26.7097 -9.90693
ltibia 0.145836
lfoot -12.6022 38.8218
ltoes 3.57281
846
root 0.827059 17.5589 8.16306 12.4014 -2.92048 -8.4436
lowerback 3.84331 1.76304 4.45789
upperback -7.19582 2.9357 1.96208
thorax -9.68053 1.18956 -0.757254
lowerneck -12.973 -4.08158 -3.30983
upperneck 25.1227 -7.08673 7.69911
head 10.6015 -2.68824 2.38396
rclavicle 1.56698e-014 -6.55989e-015
rhumerus -8.07104 31.6701 -94.083
rradius 74.102
rwrist 42.5049
rhand -10.7688 -60.9145
rfingers 7.12502
rthumb 15.2432 -269.667
lclavicle 1.56698e-014 -6.55989e-015
lhumerus -16.7641 -22.5171 77.6337
lradius 84.3178
lwrist -32.972
lhand -41.8926 -24.689
lfingers 7.12502
lthumb -14.7917 4.76311
rfemur -10.2119 22.6321 20.2017
rtibia 5.72147
rfoot -12.9672 -26.4989
rtoes 4.74412
lfemur -4.98 -26.7258 -9.99714
ltibia 0.12067
lfoot -12.2519 38.5357
ltoes 2.78861
847
root 0.829643 17.5583 8.15876 12.3929 -2.58414 -8.3517
lowerback 3.87185 1.70523 4.61914
upperback -7.22494 2.87241 1.9266
thorax -9.72467 1.1438 -0.878378
lowerneck -13.0271 -4.10636 -3.07481
upperneck 25.2403 -7.08967 7.34162
head 10.6317 -2.70393 2.21551
rclavicle 1.6465e-014 -1.59028e-014
rhumerus -7.73432 32.0445 -93.7606
rradius 74.0933
rwrist 42.1632
rhand -10.7935 -61.348
rfingers 7.12502
rthumb 15.2194 -269.232
lclavicle 1.6465e-014 -1.59028e-014
lhumerus -16.6027 -23.4307 80.326
lradius 83.6598
lwrist -34.0297
lhand -41.483 -23.4499
lfingers 7.12502
lthumb -14.3971 6.03081
rfemur -10.1513 22.7546 20.118
rtibia 5.68703
rfoot -13.1854 -26.937
rtoes 4.88159
lfemur -5.14465 -26.6997 -9.99872
ltibia 0.129865
lfoot -11.9153 38.2456
ltoes 2.27134
848
root 0.83315 17.5568 8.15489 12.4124 -2.33507 -8.32168
lowerback 3.84662 1.66117 4.80735
upperback -7.25961 2.82713 1.89844
thorax -9.74195 1.10567 -1.00695
lowerneck -12.9773 -4.11342 -2.89079
upperneck 25.2742 -7.08858 7.12819
head 10.6184 -2.71083 2.10896
rclavicle 1.75179e-015 -2.26615e-014
rhumerus -7.69781 32.0234 -93.7704
rradius 74.123
rwrist 42.2796
rhand -10.9487 -61.4315
rfingers 7.12502
rthumb 15.0699 -269.137
lclavicle 1.75179e-015 -2.26615e-014
lhumerus -16.487 -23.8879 82.977
lradius 82.6771
lwrist -34.902
lhand -41.0589 -21.9061
lfingers 7.12502
lthumb -13.9883 7.60329
rfemur -10.1383 22.7904 20.0849
rtibia 5.65449
rfoot -13.2836 -27.1932
rtoes 4.9406
lfemur -5.30332 -26.6357 -9.94474
ltibia 0.156036
lfoot -11.783 37.9344
ltoes 2.24549
849
root 0.837465 17.5555 8.15202 12.4157 -2.19016 -8.27594
lowerback 3.80758 1.62726 4.936
upperback -7.2673 2.78938 1.88884
thorax -9.72401 1.0776 -1.08291
lowerneck -12.9998 -4.13317 -3.03016
upperneck 25.3754 -7.11599 7.21833
head 10.6709 -2.72316 2.16204
rclavicle -9.90196e-015 -1.55052e-014
rhumerus -7.5988 32.1326 -93.7397
rradius 74.075
rwrist 42.4445
rhand -10.9534 -61.4477
rfingers 7.12502
rthumb 15.0654 -269.121
lclavicle -9.90196e-015 -1.55052e-014
lhumerus -16.3293 -24.0271 85.5234
lradius 81.4184
lwrist -35.163
lhand -40.8929 -20.7217
lfingers 7.12502
lthumb -13.8284 8.79863
rfemur -10.1064 22.8243 20.0343
rtibia 5.60378
rfoot -13.3021 -27.3904
rtoes 4.91891
lfemur -5.36701 -26.6234 -9.96968
ltibia 0.151519
lfoot -11.7193 37.7183
ltoes 2.13434
850
root 0.841061 17.5552 8.14893 12.4036 -2.08626 -8.21563
lowerback 3.81111 1.59103 5.01981
upperback -7.27528 2.74883 1.8934
thorax -9.73461 1.05136 -1.12006
lowerneck -13.0227 -4.16486 -3.12704
upperneck 25.4503 -7.15086 7.24305
head 10.7099 -2.74317 2.18308
rclavicle 2.89387e-014 -1.0138e-014
rhumerus -7.53939 32.2808 -93.743
rradius 73.9886
rwrist 42.4714
rhand -10.9504 -61.5731
rfingers 7.12502
rthumb 15.0683 -268.995
lclavicle 2.89387e-014 -1.0138e-014
lhumerus -16.1429 -23.9834 87.909
lradius 79.8204
lwrist -34.9186
lhand -41.0572 -20.7263
lfingers 7.12502
lthumb -13.9868 8.7832
rfemur -10.0504 22.8983 19.9665
rtibia 5.52361
rfoot -13.3516 -27.6305
rtoes 5.09089
lfemur -5.42043 -26.6054 -10.022
ltibia 0.178736
lfoot -11.6424 37.5409
ltoes 1.91458
851
root 0.839645 17.5553 8.14459 12.363 -2.00743 -8.23952
lowerback 3.87145 1.5571 5.08925
upperback -7.27555 2.717 1.9334
thorax -9.7727 1.03135 -1.11427
lowerneck -13.0719 -4.22506 -3.25296
upperneck 25.5327 -7.22874 7.29895
head 10.7624 -2.78128 2.21397
rclavicle -1.53437e-015 -1.66979e-014
rhumerus -7.52604 32.4288 -93.7952
rradius 73.8761
rwrist 42.2376
rhand -11.1615 -61.6506
rfingers 7.12502
rthumb 14.8649 -268.903
lclavicle -1.53437e-015 -1.66979e-014
lhumerus -15.9102 -23.8157 90.051
lradius 77.9175
lwrist -34.8784
lhand -41.0211 -20.9851
lfingers 7.12502
lthumb -13.952 8.52679
rfemur -9.97315 23.0292 20.022
rtibia 5.45876
rfoot -13.4158 -27.8687
rtoes 5.28358
lfemur -5.47056 -26.4471 -9.94391
ltibia 0.232358
lfoot -11.6317 37.2773
ltoes 1.96092
852
root 0.834522 17.5558 8.13886 12.318 -1.95546 -8.32695
lowerback 3.94127 1.54086 5.16346
upperback -7.26402 2.71023 1.98
thorax -9.80218 1.02386 -1.1072
lowerneck -13.1799 -4.29849 -3.41488
upperneck 25.6869 -7.3373 7.40924
head 10.8596 -2.8273 2.26624
rclavicle 3.43214e-014 -6.75868e-015
rhumerus -7.50637 32.5673 -93.8376
rradius 73.751
rwrist 41.8618
rhand -11.471 -61.546
rfingers 7.12502
rthumb 14.5668 -268.985
lclavicle 3.43214e-014 -6.75868e-015
lhumerus -15.4852 -23.5149 91.8863
lradius 75.6269
lwrist -35.5063
lhand -40.4648 -20.5022
lfingers 7.12502
lthumb -13.4158 9.04578
rfemur -9.89963 23.241 20.1749
rtibia 5.4253
rfoot -13.4482 -28.1305
rtoes 5.18365
lfemur -5.49654 -26.2813 -9.77449
ltibia 0.249621
lfoot -11.5965 37.058
ltoes 2.132
853
root 0.831901 17.5557 8.13487 12.2849 -1.91378 -8.33919
lowerback 3.95931 1.54333 5.23606
upperback -7.24413 2.72068 1.9847
thorax -9.78809 1.02431 -1.14414
lowerneck -13.3447 -4.39453 -3.82964
upperneck 25.9394 -7.48346 7.73454
head 11.0282 -2.88597 2.43507
rclavicle -9.47023e-015 1.11319e-014
rhumerus -7.4838 32.6135 -93.8445
rradius 73.6087
rwrist 41.7608
rhand -11.663 -61.4454
rfingers 7.12502
rthumb 14.3817 -269.073
lclavicle -9.47023e-015 1.11319e-014
lhumerus -14.8273 -23.093 93.4297
lradius 72.9929
lwrist -36.2982
lhand -39.7461 -19.8349
lfingers 7.12502
lthumb -12.723 9.75749
rfemur -9.81144 23.3981 20.2355
rtibia 5.35908
rfoot -13.4184 -28.3554
rtoes 4.86331
lfemur -5.50799 -26.1931 -9.73197
ltibia 0.264195
lfoot -11.473 36.9023
ltoes 2.14323
854
root 0.830857 17.5542 8.13348 12.2729 -1.82149 -8.30556
lowerback 3.91481 1.53338 5.30479
upperback -7.22103 2.70924 1.99114
thorax -9.73437 1.01565 -1.17247
lowerneck -13.2978 -4.45942 -4.01151
upperneck 25.9011 -7.56641 7.86783
head 11.0239 -2.9279 2.50324
rclavicle -1.54679e-015 2.44505e-014
rhumerus -7.42783 32.4981 -93.7992
rradius 73.4661
rwrist 42.0796
rhand -11.4277 -61.2768
rfingers 7.12502
rthumb 14.6084 -269.258
lclavicle -1.54679e-015 2.44505e-014
lhumerus -14.2193 -22.6353 94.7669
lradius 70.7146
lwrist -36.2699
lhand -38.8464 -19.3781
lfingers 7.12502
lthumb -11.8555 10.2663
rfemur -9.70902 23.5356 20.2258
rtibia 5.24221
rfoot -13.452 -28.5923
rtoes 4.91042
lfemur -5.56417 -26.0968 -9.74349
ltibia 0.315148
lfoot -11.2637 36.7064
ltoes 1.65023
855
root 0.828612 17.5524 8.13069 12.2883 -1.74384 -8.32257
lowerback 3.88769 1.49041 5.36928
upperback -7.19865 2.65728 2.03527
thorax -9.69646 0.988762 -1.1542
lowerneck -13.3499 -4.48275 -4.09196
upperneck 25.9126 -7.58039 7.86906
head 11.0429 -2.94039 2.51461
rclavicle 7.23079e-015 -4.53229e-014
rhumerus -7.31414 32.408 -93.7744
rradius 73.3662
rwrist 42.4607
rhand -10.7649 -61.0368
rfingers 7.12502
rthumb 15.2469 -269.545
lclavicle 7.23079e-015 -4.53229e-014
lhumerus -13.9871 -22.0816 95.8948
lradius 69.4754
lwrist -35.6236
lhand -38.1986 -19.3663
lfingers 7.12502
lthumb -11.2308 10.3131
rfemur -9.69629 23.6175 20.2503
rtibia 5.19728
rfoot -13.5198 -28.7083
rtoes 5.1908
lfemur -5.64732 -26.0203 -9.67286
ltibia 0.354125
lfoot -11.1004 36.5895
ltoes 1.13829
856
root 0.827759 17.5514 8.12654 12.3586 -1.73244 -8.31903
lowerback 3.87752 1.3982 5.41023
upperback -7.19266 2.53771 2.06714
thorax -9.691 0.928878 -1.12868
lowerneck -13.4669 -4.43184 -3.91521
upperneck 25.9172 -7.47279 7.59512
head 11.0402 -2.90362 2.39759
rclavicle -9.11614e-015 -2.62396e-014
rhumerus -7.15789 32.6295 -93.8404
rradius 73.2815
rwrist 42.5774
rhand -10.2806 -61.0163
rfingers 7.12502
rthumb 15.7134 -269.602
lclavicle -9.11614e-015 -2.62396e-014
lhumerus -14.2624 -21.3429 96.7124
lradius 69.2899
lwrist -35.7439
lhand -38.706 -20.0964
lfingers 7.12502
lthumb -11.7202 9.55573
rfemur -9.82957 23.5762 20.1859
rtibia 5.23903
rfoot -13.5682 -28.6337
rtoes 5.49499
lfemur -5.77984 -26.0967 -9.61347
ltibia 0.391689
lfoot -11.1337 36.6579
ltoes 1.32926
857
root 0.829053 17.5512 8.12405 12.4755 -1.71963 -8.24995
lowerback 3.87153 1.26901 5.46527
upperback -7.22252 2.3672 2.0467
thorax -9.72822 0.839098 -1.16097
lowerneck -13.5585 -4.33615 -3.67611
upperneck 25.8813 -7.32403 7.3542
head 11.0142 -2.84006 2.28795
rclavicle -2.07171e-015 -2.26615e-014
rhumerus -6.97071 33.0658 -93.9464
rradius 73.1566
rwrist 42.319
rhand -10.3276 -61.2076
rfingers 7.12502
rthumb 15.6681 -269.407
lclavicle -2.07171e-015 -2.26615e-014
lhumerus -14.902 -20.7353 97.1898
lradius 69.7349
lwrist -36.7518
lhand -40.0717 -21.1511
lfingers 7.12502
lthumb -13.0369 8.42148
rfemur -10.0045 23.5462 20.006
rtibia 5.26099
rfoot -13.6216 -28.5893
rtoes 5.87265
lfemur -5.96832 -26.3556 -9.62218
ltibia 0.450824
lfoot -11.3215 36.8795
ltoes 1.88417
